<?xml version="1.0" encoding="utf-8"?>
<!-- Generator: Adobe Illustrator 26.4.1, SVG Export Plug-In . SVG Version: 6.00 Build 0)  -->
<svg version="1.1" id="Layer_1" xmlns="http://www.w3.org/2000/svg" xmlns:xlink="http://www.w3.org/1999/xlink" x="0px" y="0px"
	 viewBox="0 0 1523.5 1526" enable-background="new 0 0 1523.5 1526" xml:space="preserve">
<path fill="#9CA3AF" d="M762.4,0C341.3,0,0,341.3,0,762.4c0,323.1,200.8,599.2,484.4,710.3c-6.9-60.2-12.5-153.1,2.5-219
	c13.8-59.6,89.1-379,89.1-379s-22.6-45.8-22.6-112.9c0-106,61.5-185.1,138-185.1c65.3,0,96.6,48.9,96.6,107.3
	c0,65.3-41.4,163.1-63.4,254.1c-18.2,75.9,38.3,138,112.9,138c135.5,0,239.7-143.1,239.7-348.9c0-182.6-131.1-310-318.7-310
	c-217.1,0-344.5,162.5-344.5,330.7c0,65.3,25.1,135.5,56.5,173.8c6.3,7.5,6.9,14.4,5,22c-5.6,23.8-18.8,75.9-21.3,86.6
	c-3.1,13.8-11.3,16.9-25.7,10c-95.4-44.5-155-183.2-155-295.5c0-240.3,174.4-461.2,503.8-461.2c264.2,0,470,188.2,470,440.5
	c0,262.9-165.6,474.4-395.3,474.4c-77.2,0-150-40.2-174.4-87.8c0,0-38.3,145.6-47.7,181.3c-16.9,66.5-63.4,149.3-94.7,200.2
	c71.5,22,146.8,33.9,225.9,33.9c421,0,762.4-341.3,762.4-762.4C1524.7,341.3,1183.4,0,762.4,0z"/>
</svg>
